<?xml version="1.0" standalone="no"?>
<!DOCTYPE svg PUBLIC "-//W3C//DTD SVG 20010904//EN"
 "http://www.w3.org/TR/2001/REC-SVG-20010904/DTD/svg10.dtd">
<svg version="1.0" xmlns="http://www.w3.org/2000/svg"
 width="1552.000000pt" height="1552.000000pt" viewBox="0 0 1552.000000 1552.000000"
 preserveAspectRatio="xMidYMid meet">
<metadata>
Created by potrace 1.14, written by Peter Selinger 2001-2017
</metadata>
<g transform="translate(0.000000,1552.000000) scale(0.100000,-0.100000)"
fill="#000000" stroke="none">
<path d="M2 11423 l3 -66 40 -13 c22 -8 52 -21 68 -29 15 -9 27 -14 27 -10 0
7 99 -49 183 -103 139 -91 264 -243 365 -444 25 -51 47 -95 47 -98 1 -3 12
-27 24 -55 13 -27 38 -81 56 -120 18 -38 47 -100 64 -137 17 -38 45 -98 63
-135 17 -38 32 -70 33 -73 1 -5 19 -42 100 -215 16 -33 29 -62 30 -65 0 -3 16
-36 34 -75 55 -114 81 -173 81 -181 0 -4 7 -15 15 -24 9 -10 17 -26 20 -36 3
-17 25 -66 147 -324 22 -47 48 -103 58 -125 10 -22 34 -75 54 -117 93 -200
112 -241 163 -352 30 -65 59 -126 63 -135 5 -9 19 -38 31 -66 12 -27 48 -106
80 -174 33 -68 59 -125 59 -126 0 -3 21 -49 120 -260 18 -38 47 -101 65 -140
115 -248 145 -312 197 -425 25 -52 53 -113 63 -135 10 -22 37 -80 60 -130 23
-49 49 -106 58 -125 9 -19 41 -88 71 -154 31 -65 56 -120 56 -122 0 -2 20 -45
45 -96 25 -51 45 -98 45 -105 0 -7 5 -13 10 -13 6 0 10 -6 10 -14 0 -8 9 -31
19 -53 11 -21 36 -74 57 -118 20 -44 56 -122 80 -173 24 -52 44 -95 44 -97 0
-2 24 -54 54 -116 54 -115 68 -144 181 -389 34 -74 77 -166 95 -205 18 -38 44
-95 57 -125 14 -30 45 -95 68 -145 39 -83 103 -222 188 -405 34 -73 70 -152
128 -276 16 -34 29 -67 29 -73 0 -6 5 -11 10 -11 6 0 10 -5 10 -10 0 -6 9 -29
20 -53 19 -41 22 -43 65 -43 33 0 45 4 46 16 0 8 2 22 4 30 2 8 5 27 8 43 3
15 9 37 13 50 4 12 8 29 9 37 0 8 10 42 20 75 10 33 19 62 20 65 2 11 37 106
46 122 5 10 9 22 9 27 0 5 6 24 14 42 8 19 15 39 16 44 0 6 7 19 14 30 10 16
46 104 52 125 0 3 8 21 16 40 9 19 35 78 58 130 23 52 48 108 56 124 8 16 14
33 14 37 0 5 18 46 39 91 22 46 52 112 66 148 15 36 56 130 92 210 36 80 77
170 90 200 14 30 33 73 43 95 10 22 24 55 31 73 8 17 17 32 20 32 3 0 6 6 6
13 0 6 21 55 45 107 25 53 51 113 59 133 7 20 17 37 21 37 4 0 8 7 8 16 0 9 6
28 14 42 23 43 46 99 46 111 0 6 5 11 10 11 6 0 10 5 10 11 0 10 10 34 76 177
19 41 34 75 34 77 0 2 17 41 39 87 21 45 80 175 131 288 51 113 110 243 132
290 22 47 41 90 42 95 1 6 12 28 23 50 11 22 21 42 21 45 0 3 17 41 37 85 20
44 45 99 56 123 10 23 29 63 41 90 13 26 23 49 24 52 0 3 16 37 34 75 18 39
34 72 34 75 2 10 40 95 46 100 3 3 6 10 7 15 1 10 66 152 99 219 8 16 14 35
14 43 0 7 5 13 10 13 6 0 10 6 10 14 0 7 21 58 46 112 58 124 93 202 94 212 1
4 8 18 15 32 15 26 54 113 112 245 20 44 39 85 43 90 4 6 11 21 15 34 4 14 27
65 50 115 23 50 61 134 85 186 23 52 55 122 70 155 29 62 50 110 94 208 25 54
41 89 102 225 15 31 43 95 64 142 21 47 55 121 76 165 21 44 38 82 38 85 5 22
43 100 49 100 5 0 6 3 4 8 -3 4 11 36 29 72 18 36 41 80 49 98 26 54 121 204
157 246 47 56 116 123 157 154 20 15 39 31 43 37 4 5 8 6 8 1 0 -5 8 -2 17 6
51 44 244 127 348 148 33 7 98 13 144 14 94 2 100 7 93 71 l-4 34 -1094 -1
-1094 0 0 -49 c0 -27 3 -49 8 -50 4 0 43 -2 88 -4 129 -6 231 -53 333 -154 89
-88 112 -147 107 -273 -2 -51 -9 -94 -16 -103 -7 -8 -10 -15 -7 -15 6 0 -15
-68 -33 -105 -10 -22 -42 -97 -45 -105 -1 -3 -8 -21 -17 -40 -8 -19 -34 -80
-57 -135 -23 -55 -51 -119 -62 -142 -10 -24 -19 -45 -19 -47 0 -2 -12 -30 -27
-62 -15 -33 -27 -61 -28 -64 -1 -3 -8 -18 -15 -35 -7 -16 -14 -32 -14 -35 -3
-13 -99 -236 -106 -245 -4 -5 -11 -21 -15 -35 -4 -14 -18 -47 -31 -74 -13 -28
-24 -53 -24 -58 0 -4 -12 -33 -26 -65 -40 -88 -48 -108 -105 -243 -29 -69 -56
-129 -61 -134 -4 -6 -8 -15 -8 -22 0 -6 -12 -38 -27 -70 -15 -33 -28 -61 -29
-64 -1 -5 0 -4 -73 -174 -29 -66 -58 -134 -66 -150 -7 -17 -19 -48 -25 -68 -6
-21 -16 -38 -22 -38 -6 0 -9 -3 -6 -6 4 -3 -5 -31 -19 -62 -28 -64 -46 -104
-48 -112 -1 -3 -8 -21 -17 -40 -8 -19 -34 -80 -58 -135 -23 -55 -51 -120 -62
-145 -23 -53 -45 -106 -60 -140 -5 -14 -16 -38 -24 -55 -7 -16 -24 -58 -39
-92 -14 -35 -37 -89 -52 -120 -14 -32 -26 -64 -26 -70 0 -7 -4 -13 -9 -13 -4
0 -8 -7 -8 -15 0 -8 -4 -23 -10 -33 -5 -9 -19 -39 -30 -67 -25 -58 -48 -111
-60 -140 -5 -11 -23 -54 -41 -95 -17 -41 -40 -94 -50 -117 -11 -23 -19 -44
-19 -47 0 -3 -13 -35 -30 -71 -16 -36 -30 -68 -30 -70 0 -2 -11 -28 -24 -57
-13 -29 -36 -82 -51 -118 -15 -36 -32 -70 -37 -77 -5 -7 -7 -17 -3 -23 3 -5 1
-10 -4 -10 -6 0 -11 -5 -11 -12 0 -6 -9 -30 -19 -52 -11 -23 -27 -59 -36 -81
l-16 -40 -13 35 c-8 19 -22 53 -32 75 -10 22 -18 42 -19 45 -1 3 -6 16 -12 30
-57 134 -95 228 -98 241 -2 9 -8 25 -13 35 -5 11 -14 30 -20 44 -5 14 -17 41
-25 60 -8 19 -45 109 -82 200 -37 91 -78 191 -91 223 -13 31 -35 83 -48 115
-13 31 -58 143 -101 247 -42 105 -83 204 -90 220 -14 34 -28 67 -29 75 -1 3
-4 10 -8 15 -3 6 -34 80 -68 165 -34 85 -73 179 -86 208 -13 29 -24 55 -24 58
0 5 -129 319 -155 379 -7 17 -28 66 -45 110 -17 44 -38 96 -47 115 -8 19 -19
44 -24 55 -5 11 -29 72 -55 135 -25 63 -53 131 -61 150 -8 19 -20 46 -25 60
-6 14 -14 33 -19 42 -5 10 -9 25 -9 33 0 8 -5 15 -10 15 -6 0 -9 3 -8 8 3 9
-91 243 -104 260 -6 6 -8 12 -5 12 3 0 -7 29 -24 65 -16 35 -29 71 -29 80 0 8
-3 15 -8 15 -4 0 -13 18 -20 41 -7 22 -22 61 -33 87 -12 26 -25 57 -30 70 -5
12 -13 32 -19 45 -14 33 -88 213 -116 284 -76 189 -93 368 -44 468 47 96 199
218 299 240 19 4 67 9 105 10 39 2 74 4 79 4 4 1 7 23 7 50 l0 50 -1485 0
-1486 -1 3 -65z"/>
<path d="M7883 11469 c3 -10 2 -21 -3 -24 -8 -5 -1 -54 9 -56 3 -1 53 -2 111
-4 163 -4 271 -38 380 -121 70 -53 190 -181 190 -203 0 -4 8 -19 19 -32 24
-31 57 -128 70 -204 14 -83 14 -5757 0 -5840 -13 -76 -40 -165 -51 -165 -4 0
-5 -7 -2 -15 4 -8 1 -15 -5 -15 -6 0 -11 -5 -11 -10 0 -16 -68 -110 -114 -158
-69 -73 -194 -153 -256 -164 -8 -2 -17 -5 -20 -8 -12 -14 -115 -26 -214 -25
l-107 0 2 -52 c2 -46 5 -53 23 -54 12 0 36 -1 54 -2 17 -1 32 1 32 5 0 4 13 3
30 -2 17 -5 32 -5 35 0 3 5 16 5 30 0 15 -6 25 -6 25 0 0 5 12 5 28 1 15 -5
37 -5 49 0 13 5 25 4 28 -1 4 -7 13 -7 24 0 10 5 21 7 24 4 8 -9 97 -10 97 -2
0 4 11 3 25 -2 15 -6 27 -6 30 0 3 5 15 6 28 1 12 -5 34 -5 49 0 16 4 28 4 28
-1 0 -5 13 -5 30 0 18 5 32 5 36 -1 3 -5 10 -7 15 -3 15 9 78 11 91 3 6 -4 22
-3 34 1 14 6 26 5 29 0 4 -6 13 -7 24 -1 9 5 23 6 31 1 7 -4 24 -4 36 0 14 6
26 5 29 0 4 -6 13 -7 24 -1 9 5 23 6 31 1 7 -4 24 -4 36 0 14 6 26 5 29 0 4
-6 13 -7 24 -1 9 5 23 6 31 1 7 -4 24 -4 36 0 14 6 26 5 29 0 4 -6 13 -7 24
-1 10 6 23 6 31 1 8 -5 21 -5 31 0 9 5 19 7 22 4 8 -9 97 -10 97 -2 0 4 11 3
25 -2 15 -6 27 -6 30 0 3 5 15 6 28 1 12 -5 34 -5 49 0 16 4 28 4 28 -1 0 -5
13 -5 30 0 18 5 32 5 36 -1 3 -5 12 -6 20 -1 9 5 34 6 58 2 23 -3 54 -3 69 1
15 4 27 4 27 1 0 -8 68 -7 76 1 3 3 17 2 30 -3 14 -6 24 -6 24 0 0 5 12 5 30
0 17 -5 30 -5 30 0 0 5 13 5 30 0 17 -5 32 -5 35 0 3 5 16 5 30 0 15 -6 25 -6
25 0 0 5 12 5 28 1 15 -5 37 -5 49 0 13 5 25 4 28 -1 4 -7 13 -7 24 0 10 5 21
7 24 3 8 -7 154 -6 167 2 5 3 10 3 10 -2 0 -9 83 -8 106 1 8 3 14 1 14 -4 0
-6 9 -6 25 0 15 6 26 6 30 0 4 -6 13 -7 24 -1 9 5 23 6 31 1 7 -4 24 -4 36 0
14 6 26 5 29 0 4 -6 13 -7 24 -1 9 5 23 6 31 1 7 -4 24 -4 36 0 14 6 26 5 29
0 4 -7 13 -7 24 0 10 5 21 7 25 3 9 -9 58 -10 83 -1 12 4 25 3 28 -2 3 -5 17
-5 33 1 24 8 27 14 25 52 -1 23 -2 44 -2 47 -1 3 -47 5 -104 6 -56 0 -120 3
-142 7 -252 39 -457 233 -521 492 -4 17 -9 37 -12 45 -2 8 -5 1317 -6 2909 -1
2319 1 2909 12 2970 37 222 209 420 437 504 58 21 117 30 225 33 52 1 100 2
105 3 9 1 10 18 6 80 -1 19 -28 20 -1557 19 -1528 0 -1556 0 -1551 -19z"/>
<path d="M12622 11442 l3 -47 80 -1 c127 -1 196 -24 257 -87 36 -37 82 -131
74 -152 -3 -8 0 -17 6 -21 7 -4 6 -9 -3 -15 -9 -5 -10 -9 -2 -9 6 0 9 -9 6
-22 -19 -88 -43 -130 -161 -286 -69 -92 -129 -168 -134 -170 -4 -2 -8 -8 -8
-13 0 -8 -51 -77 -128 -174 -4 -5 -21 -28 -37 -50 -33 -43 -45 -59 -60 -78 -5
-7 -64 -84 -130 -172 -66 -88 -122 -162 -125 -165 -3 -3 -52 -68 -110 -145
-116 -155 -110 -148 -145 -190 -14 -16 -25 -33 -25 -36 0 -4 -12 -21 -27 -38
-16 -16 -44 -52 -63 -78 -19 -26 -39 -52 -43 -58 -4 -5 -50 -66 -102 -135 -52
-69 -98 -130 -102 -135 -4 -6 -28 -37 -52 -70 -25 -33 -50 -64 -55 -70 -6 -5
-27 -32 -46 -60 -19 -27 -45 -61 -57 -75 -13 -14 -23 -28 -23 -32 0 -3 -6 -13
-13 -20 -7 -7 -47 -58 -88 -113 -40 -55 -76 -102 -79 -105 -3 -3 -25 -32 -50
-65 -24 -33 -48 -64 -52 -70 -5 -5 -36 -46 -69 -90 -32 -44 -67 -90 -77 -101
-9 -12 -26 -34 -37 -49 -11 -16 -26 -34 -32 -41 -7 -7 -13 -17 -13 -22 0 -6
-3 -12 -8 -14 -10 -4 -112 -136 -112 -144 0 -4 -8 -14 -17 -23 -10 -9 -22 -24
-28 -32 -21 -34 -99 -134 -107 -137 -4 -2 -8 -8 -8 -14 0 -5 -6 -15 -12 -22
-12 -12 -28 -32 -62 -80 -12 -18 -9 -27 33 -90 58 -90 175 -252 211 -295 8
-10 20 -25 25 -34 14 -21 302 -418 320 -440 8 -9 15 -22 15 -27 0 -6 3 -10 8
-10 4 0 23 -25 42 -55 19 -30 38 -55 43 -55 4 0 7 -5 7 -11 0 -6 10 -24 23
-39 12 -15 29 -37 37 -50 8 -12 37 -52 63 -89 49 -66 59 -80 132 -177 22 -30
56 -75 75 -101 19 -27 37 -50 40 -53 7 -7 99 -135 130 -182 14 -21 28 -38 33
-38 4 0 7 -5 7 -11 0 -6 6 -17 13 -24 6 -8 23 -30 37 -50 14 -20 42 -58 63
-84 20 -27 37 -53 37 -59 0 -6 3 -12 8 -14 4 -1 28 -32 54 -68 26 -36 51 -69
56 -75 4 -5 19 -26 32 -45 14 -19 27 -37 30 -40 3 -3 30 -39 60 -80 30 -41 60
-82 67 -90 7 -8 48 -62 90 -120 88 -121 96 -131 223 -259 90 -91 163 -155 199
-175 9 -5 18 -12 21 -16 13 -16 125 -83 217 -129 96 -48 334 -148 378 -158 28
-6 38 -9 55 -16 8 -4 24 -8 35 -10 11 -2 27 -7 35 -10 21 -8 109 -27 147 -32
18 -2 36 -6 40 -8 4 -3 26 -8 48 -11 22 -4 47 -8 55 -11 8 -2 33 -7 55 -9 22
-3 58 -8 80 -11 86 -12 113 -15 195 -20 88 -6 355 -15 447 -16 29 0 57 2 62 5
5 4 12 2 16 -4 4 -7 12 -7 24 0 10 5 21 7 24 4 9 -9 67 -11 67 -2 0 4 11 3 25
-2 15 -6 27 -6 30 0 3 5 15 6 28 1 12 -5 34 -5 49 0 16 4 28 4 28 -1 0 -5 13
-5 30 0 18 5 32 5 35 -1 4 -5 13 -5 23 0 25 13 25 13 53 2 15 -5 30 -7 33 -4
9 9 56 10 56 1 0 -4 11 -3 25 2 14 5 27 5 30 0 3 -5 18 -5 35 0 18 5 30 5 30
0 0 -6 10 -6 25 0 13 5 27 6 29 1 3 -4 22 -5 43 -2 38 6 38 7 39 54 1 26 -1
47 -5 48 -179 17 -206 22 -316 56 -104 33 -242 100 -275 133 -3 3 -21 16 -40
30 -114 80 -321 296 -430 449 -14 19 -31 42 -37 50 -7 9 -49 66 -92 126 -44
61 -84 115 -88 120 -5 6 -89 120 -186 255 -98 135 -183 252 -190 260 -7 8 -23
31 -37 50 -13 19 -54 76 -90 125 -64 87 -307 419 -336 460 -8 11 -52 71 -98
133 -46 62 -96 131 -112 155 -16 23 -31 44 -34 47 -4 3 -35 46 -71 95 -35 50
-79 110 -97 135 -62 83 -70 95 -121 165 -27 39 -54 75 -58 80 -5 6 -39 53 -77
105 -38 52 -73 97 -77 98 -5 2 -9 8 -9 13 0 8 -58 91 -95 136 -5 7 -39 53 -75
103 -36 50 -89 122 -117 160 -29 38 -53 73 -53 79 0 6 -4 11 -8 11 -4 0 -15
12 -24 28 -9 15 -24 36 -32 47 -25 31 -69 90 -91 121 -11 15 -30 40 -42 55
-13 15 -23 31 -23 37 0 6 -3 12 -8 14 -4 2 -37 44 -73 93 l-67 91 20 24 c10
14 31 39 46 55 16 17 59 68 97 115 38 47 72 87 75 90 3 3 28 32 55 65 28 32
57 67 65 76 8 9 31 36 50 59 19 24 40 48 45 54 6 6 66 78 135 161 69 82 135
161 147 175 40 46 58 67 98 116 22 26 46 53 53 60 6 7 12 17 12 23 0 6 7 11
15 11 8 0 15 4 15 9 0 5 6 16 13 23 6 7 28 33 48 58 20 25 45 55 55 66 11 12
37 43 59 70 22 27 48 56 58 66 9 10 17 23 17 29 0 5 5 7 10 4 6 -3 10 -1 10 4
0 11 14 30 60 80 14 15 39 44 55 65 17 21 38 47 49 59 10 12 64 76 119 142 56
66 106 125 112 131 5 6 26 30 47 55 53 64 100 120 124 149 12 14 51 59 85 100
35 42 70 82 77 90 7 8 22 26 33 40 108 132 216 226 349 305 36 21 74 44 85 50
11 7 23 13 28 14 4 0 28 12 55 25 39 21 88 43 112 51 3 1 12 4 20 7 53 18 164
49 195 54 11 2 31 5 45 8 38 9 135 18 214 21 39 2 73 3 76 4 3 1 6 21 6 45 l1
44 -1174 0 -1174 0 3 -46z"/>
</g>
</svg>
